HIERARCHY
ROOT Hips
{
  OFFSET 0.849866 78.6569 -0.536788
  CHANNELS 6 Xposition Yposition Zposition Zrotation Xrotation Yrotation
  JOINT Bip01_Pelvis
  {
    OFFSET 0 0 0
    CHANNELS 6 Xposition Yposition Zposition Zrotation Xrotation Yrotation
    JOINT BN_Tail_01
    {
      OFFSET -5.52397 -0.332285 0
      CHANNELS 6 Xposition Yposition Zposition Zrotation Xrotation Yrotation
      JOINT BN_Tail_02
      {
        OFFSET 6.48885 -2.032e-005 0
        CHANNELS 6 Xposition Yposition Zposition Zrotation Xrotation Yrotation
        JOINT BN_Tail_03
        {
          OFFSET 7.08759 1.016e-005 -0.00261112
          CHANNELS 6 Xposition Yposition Zposition Zrotation Xrotation Yrotation
          End Site
          {
            OFFSET 0 0 0
          }
        }
      }
    }
    JOINT Bip01_Spine
    {
      OFFSET 4.02227 0.398968 0
      CHANNELS 6 Xposition Yposition Zposition Zrotation Xrotation Yrotation
      JOINT BN_UpperArm_R_01
      {
        OFFSET 4.84413 -3.22857 -3.65581
        CHANNELS 6 Xposition Yposition Zposition Zrotation Xrotation Yrotation
        JOINT BN_Forearm_R_01
        {
          OFFSET 8.51614 0 0
          CHANNELS 6 Xposition Yposition Zposition Zrotation Xrotation Yrotation
          JOINT BN_hand_R_01
          {
            OFFSET 10.1924 0 0
            CHANNELS 6 Xposition Yposition Zposition Zrotation Xrotation Yrotation
            JOINT BN_Finger_R_02
            {
              OFFSET 14.5949 -1.43855 0.585079
              CHANNELS 6 Xposition Yposition Zposition Zrotation Xrotation Yrotation
              End Site
              {
                OFFSET 0 0 0
              }
            }
            JOINT BN_Finger_R_01
            {
              OFFSET 14.4623 0 0
              CHANNELS 6 Xposition Yposition Zposition Zrotation Xrotation Yrotation
              End Site
              {
                OFFSET 0 0 0
              }
            }
          }
        }
      }
      JOINT BN_UpperArm_L_01
      {
        OFFSET 4.84412 -3.22858 3.65557
        CHANNELS 6 Xposition Yposition Zposition Zrotation Xrotation Yrotation
        JOINT BN_Forearm_L_01
        {
          OFFSET 8.51611 0 0
          CHANNELS 6 Xposition Yposition Zposition Zrotation Xrotation Yrotation
          JOINT BN_hand_L_01
          {
            OFFSET 10.1924 0 0
            CHANNELS 6 Xposition Yposition Zposition Zrotation Xrotation Yrotation
            JOINT BN_Finger_L_01
            {
              OFFSET 14.4623 0 0
              CHANNELS 6 Xposition Yposition Zposition Zrotation Xrotation Yrotation
              End Site
              {
                OFFSET 0 0 0
              }
            }
            JOINT BN_Finger_L_02
            {
              OFFSET 14.5949 1.43855 0.585071
              CHANNELS 6 Xposition Yposition Zposition Zrotation Xrotation Yrotation
              End Site
              {
                OFFSET 0 0 0
              }
            }
          }
        }
      }
      JOINT Bip01_R_Thigh
      {
        OFFSET -4.03411 -0.254132 -3.45377
        CHANNELS 6 Xposition Yposition Zposition Zrotation Xrotation Yrotation
        JOINT Bip01_R_Calf
        {
          OFFSET 3.92618 0 0
          CHANNELS 6 Xposition Yposition Zposition Zrotation Xrotation Yrotation
          JOINT Bip01_R_HorseLink
          {
            OFFSET 6.12319 0 0
            CHANNELS 6 Xposition Yposition Zposition Zrotation Xrotation Yrotation
            JOINT Bip01_R_Foot
            {
              OFFSET 9.94776 0 0
              CHANNELS 6 Xposition Yposition Zposition Zrotation Xrotation Yrotation
              JOINT Bip01_R_Toe3
              {
                OFFSET 0.881252 -0.110953 0.0158496
                CHANNELS 6 Xposition Yposition Zposition Zrotation Xrotation Yrotation
                JOINT Bip01_R_Toe31
                {
                  OFFSET 2.32137 0 0
                  CHANNELS 6 Xposition Yposition Zposition Zrotation Xrotation Yrotation
                  JOINT Bip01_R_Toe32
                  {
                    OFFSET 1.63293 0 0
                    CHANNELS 6 Xposition Yposition Zposition Zrotation Xrotation Yrotation
                    JOINT Bip01_R_Toe3Nub
                    {
                      OFFSET 1.72131 0 0
                      CHANNELS 6 Xposition Yposition Zposition Zrotation Xrotation Yrotation
                      End Site
                      {
                        OFFSET 0 0 0
                      }
                    }
                  }
                }
              }
              JOINT Bip01_R_Toe2
              {
                OFFSET 0.994751 0.967285 -1.09428
                CHANNELS 6 Xposition Yposition Zposition Zrotation Xrotation Yrotation
                JOINT Bip01_R_Toe21
                {
                  OFFSET 2.20201 0 0
                  CHANNELS 6 Xposition Yposition Zposition Zrotation Xrotation Yrotation
                  JOINT Bip01_R_Toe22
                  {
                    OFFSET 1.84925 0 0
                    CHANNELS 6 Xposition Yposition Zposition Zrotation Xrotation Yrotation
                    JOINT Bip01_R_Toe2Nub
                    {
                      OFFSET 1.70976 0 0
                      CHANNELS 6 Xposition Yposition Zposition Zrotation Xrotation Yrotation
                      End Site
                      {
                        OFFSET 0 0 0
                      }
                    }
                  }
                }
              }
              JOINT Bip01_R_Toe1
              {
                OFFSET 1.3748 1.34027 -0.0712419
                CHANNELS 6 Xposition Yposition Zposition Zrotation Xrotation Yrotation
                JOINT Bip01_R_Toe11
                {
                  OFFSET 2.26122 0 0
                  CHANNELS 6 Xposition Yposition Zposition Zrotation Xrotation Yrotation
                  JOINT Bip01_R_Toe12
                  {
                    OFFSET 2.22215 0 0
                    CHANNELS 6 Xposition Yposition Zposition Zrotation Xrotation Yrotation
                    JOINT Bip01_R_Toe1Nub
                    {
                      OFFSET 1.61867 0 0
                      CHANNELS 6 Xposition Yposition Zposition Zrotation Xrotation Yrotation
                      End Site
                      {
                        OFFSET 0 0 0
                      }
                    }
                  }
                }
              }
              JOINT Bip01_R_Toe0
              {
                OFFSET 1.40695 0.687986 0.883783
                CHANNELS 6 Xposition Yposition Zposition Zrotation Xrotation Yrotation
                JOINT Bip01_R_Toe01
                {
                  OFFSET 2.26828 0 0
                  CHANNELS 6 Xposition Yposition Zposition Zrotation Xrotation Yrotation
                  JOINT Bip01_R_Toe02
                  {
                    OFFSET 2.09769 0 0
                    CHANNELS 6 Xposition Yposition Zposition Zrotation Xrotation Yrotation
                    JOINT Bip01_R_Toe0Nub
                    {
                      OFFSET 1.53753 0 0
                      CHANNELS 6 Xposition Yposition Zposition Zrotation Xrotation Yrotation
                      End Site
                      {
                        OFFSET 0 0 0
                      }
                    }
                  }
                }
              }
            }
          }
        }
      }
      JOINT Bip01_L_Thigh
      {
        OFFSET -4.03411 -0.254147 3.45377
        CHANNELS 6 Xposition Yposition Zposition Zrotation Xrotation Yrotation
        JOINT Bip01_L_Calf
        {
          OFFSET 3.92616 0 0
          CHANNELS 6 Xposition Yposition Zposition Zrotation Xrotation Yrotation
          JOINT Bip01_L_HorseLink
          {
            OFFSET 6.1232 0 0
            CHANNELS 6 Xposition Yposition Zposition Zrotation Xrotation Yrotation
            JOINT Bip01_L_Foot
            {
              OFFSET 9.94775 0 0
              CHANNELS 6 Xposition Yposition Zposition Zrotation Xrotation Yrotation
              JOINT Bip01_L_Toe3
              {
                OFFSET 0.881246 -0.110986 -0.0157582
                CHANNELS 6 Xposition Yposition Zposition Zrotation Xrotation Yrotation
                JOINT Bip01_L_Toe31
                {
                  OFFSET 2.32136 0 0
                  CHANNELS 6 Xposition Yposition Zposition Zrotation Xrotation Yrotation
                  JOINT Bip01_L_Toe32
                  {
                    OFFSET 1.63293 0 0
                    CHANNELS 6 Xposition Yposition Zposition Zrotation Xrotation Yrotation
                    JOINT Bip01_L_Toe3Nub
                    {
                      OFFSET 1.7213 0 0
                      CHANNELS 6 Xposition Yposition Zposition Zrotation Xrotation Yrotation
                      End Site
                      {
                        OFFSET 0 0 0
                      }
                    }
                  }
                }
              }
              JOINT Bip01_L_Toe2
              {
                OFFSET 0.994649 0.967162 1.09447
                CHANNELS 6 Xposition Yposition Zposition Zrotation Xrotation Yrotation
                JOINT Bip01_L_Toe21
                {
                  OFFSET 2.202 0 0
                  CHANNELS 6 Xposition Yposition Zposition Zrotation Xrotation Yrotation
                  JOINT Bip01_L_Toe22
                  {
                    OFFSET 1.84926 0 0
                    CHANNELS 6 Xposition Yposition Zposition Zrotation Xrotation Yrotation
                    JOINT Bip01_L_Toe2Nub
                    {
                      OFFSET 1.70976 0 0
                      CHANNELS 6 Xposition Yposition Zposition Zrotation Xrotation Yrotation
                      End Site
                      {
                        OFFSET 0 0 0
                      }
                    }
                  }
                }
              }
              JOINT Bip01_L_Toe1
              {
                OFFSET 1.37483 1.34021 0.0715086
                CHANNELS 6 Xposition Yposition Zposition Zrotation Xrotation Yrotation
                JOINT Bip01_L_Toe11
                {
                  OFFSET 2.26124 0 0
                  CHANNELS 6 Xposition Yposition Zposition Zrotation Xrotation Yrotation
                  JOINT Bip01_L_Toe12
                  {
                    OFFSET 2.22214 0 0
                    CHANNELS 6 Xposition Yposition Zposition Zrotation Xrotation Yrotation
                    JOINT Bip01_L_Toe1Nub
                    {
                      OFFSET 1.61867 0 0
                      CHANNELS 6 Xposition Yposition Zposition Zrotation Xrotation Yrotation
                      End Site
                      {
                        OFFSET 0 0 0
                      }
                    }
                  }
                }
              }
              JOINT Bip01_L_Toe0
              {
                OFFSET 1.40707 0.688009 -0.883564
                CHANNELS 6 Xposition Yposition Zposition Zrotation Xrotation Yrotation
                JOINT Bip01_L_Toe01
                {
                  OFFSET 2.26828 0 0
                  CHANNELS 6 Xposition Yposition Zposition Zrotation Xrotation Yrotation
                  JOINT Bip01_L_Toe02
                  {
                    OFFSET 2.0977 0 0
                    CHANNELS 6 Xposition Yposition Zposition Zrotation Xrotation Yrotation
                    JOINT Bip01_L_Toe0Nub
                    {
                      OFFSET 1.53752 0 0
                      CHANNELS 6 Xposition Yposition Zposition Zrotation Xrotation Yrotation
                      End Site
                      {
                        OFFSET 0 0 0
                      }
                    }
                  }
                }
              }
            }
          }
        }
      }
      JOINT Bip01_Spine1
      {
        OFFSET 4.90674 -0.00437896 0
        CHANNELS 6 Xposition Yposition Zposition Zrotation Xrotation Yrotation
        JOINT Bip01_Neck
        {
          OFFSET 5.56447 -1.28357 0
          CHANNELS 6 Xposition Yposition Zposition Zrotation Xrotation Yrotation
          JOINT Bip01_Neck1
          {
            OFFSET 2.79308 -0.00219964 0
            CHANNELS 6 Xposition Yposition Zposition Zrotation Xrotation Yrotation
            JOINT Bip01_Head
            {
              OFFSET 2.79272 0 0
              CHANNELS 6 Xposition Yposition Zposition Zrotation Xrotation Yrotation
              JOINT BN_Mouth_01
              {
                OFFSET 4.19089 0.0665938 0
                CHANNELS 6 Xposition Yposition Zposition Zrotation Xrotation Yrotation
                End Site
                {
                  OFFSET 0 0 0
                }
              }
              JOINT Bip01_HeadNub
              {
                OFFSET 6.95118 0 0
                CHANNELS 6 Xposition Yposition Zposition Zrotation Xrotation Yrotation
                End Site
                {
                  OFFSET 0 0 0
                }
              }
            }
          }
        }
      }
    }
  }
}
MOTION
Frames:	3
Frame Time:	0.0333333
0.849866 14.5651 0 96.9536 -90 -180 0 0 0 -89.9988 6.18131 -89.9989 -5.52397 -0.33228 2.91038e-011 -21.8977 -2.75903 179.943 6.48885 -9.53675e-007 0 -17.5049 2.16836e-008 2.88502e-008 7.08759 -9.53675e-007 -0.00170946 -12.1122 1.36224e-007 2.93438e-008 4.02139 0.398892 -5.42101e-020 -2.33277 2.79541e-017 5.21088e-011 4.47644 -4.1544 -0.36784 -63.5335 -63.56 79.4802 8.51612 4.4409e-016 0 122.432 77.109 23.4528 10.1924 1.90735e-006 9.53673e-007 -118.736 -10.6266 13.474 14.5949 -1.43855 0.58508 -20.7599 0.880927 3.03447 14.4623 0 8.88177e-016 -50.39 7.42509 0.965062 4.85599 -3.27139 0.772031 119.404 -62.5081 -101.251 8.51612 -4.4409e-016 1.90735e-006 -142.165 -70.4685 7.5748 10.1924 -3.55272e-015 -9.53673e-007 126.015 12.5525 18.0227 14.4623 3.55273e-015 -8.88177e-016 34.612 0.30351 7.87889 14.5949 1.4385 0.585104 5.55958 -3.42605 13.2429 -4.00183 -0.562231 -3.45377 -102.793 2.92054 -174.482 3.92617 4.76838e-007 0 -71.181 -5.0641e-006 -1.64709e-005 6.1232 8.88181e-016 -4.44089e-016 103.069 4.31906e-006 1.70245e-005 9.94775 -4.7684e-007 0 -59.0039 18.423 -3.41197 0.881236 -0.110956 0.0158345 110.21 -3.28659 176.752 2.32136 1.19211e-007 -8.19564e-008 46.4406 1.53066e-006 5.16867e-007 1.63292 -4.44097e-016 4.47035e-008 -54.5976 -3.42407e-006 1.30893e-005 1.72129 0 1.49012e-008 1.02626e-006 1.00594e-005 2.68767e-007 0.994722 0.967274 -1.09431 71.6797 -11.0426 25.3265 2.202 -2.38422e-007 2.38419e-007 37.0436 3.56837e-007 2.38205e-007 1.84924 2.38423e-007 0 -30.305 -1.44281e-005 -8.42861e-006 1.70976 0 -2.38419e-007 7.25562e-008 1.01798e-005 1.04605e-006 1.37479 1.34027 -0.0712851 79.6945 0.482234 -2.64825 2.26123 2.22048e-016 2.01166e-007 24.1835 1.40454e-005 4.42516e-006 2.22213 -4.44096e-016 7.45058e-008 -43.5071 3.71917e-006 4.4071e-006 1.61867 -4.76846e-007 3.7998e-007 2.55528e-007 1.69425e-006 -9.04837e-008 1.40695 0.687995 0.883748 81.4308 5.2948 -42.4962 2.26827 0 0 29.1653 4.7376e-007 1.00161e-005 2.09769 -2.38423e-007 0 -55.023 -1.29033e-005 8.81577e-007 1.53752 8.88199e-016 0 -2.33975e-007 9.76681e-006 2.08836e-007 -4.00193 -0.562258 3.45377 -49.7417 -3.98736 178.86 3.92617 8.8818e-016 4.44089e-016 -31.3827 -5.06543e-006 8.55443e-006 6.1232 0 0 110.17 -1.05676e-005 2.22089e-005 9.94776 -1.33227e-015 0 -50.667 -16.2793 3.29034 0.88124 -0.110943 -0.0157733 110.805 3.24621 -176.86 2.32136 0 -0.000858545 54.452 0.0208108 0.0404113 1.63293 2.98028e-008 0.000795126 -61.5302 -2.48272e-006 -3.46632e-006 1.72129 -2.2205e-016 -4.44089e-016 179.967 -0.0210444 -0.00148826 0.994617 0.967139 1.09452 74.9865 9.48059 -25.9179 2.20201 -2.22047e-016 2.38418e-007 40.0483 -0.00328858 0.00120845 1.84925 -1.19211e-007 -2.38418e-007 -72.6455 -1.74312e-006 -6.69945e-007 1.70976 -4.76848e-007 -2.38418e-007 179.961 0.00717483 0.000269363 1.37477 1.34028 0.0715771 72.3142 -0.819737 2.5656 2.26123 0 -1.19209e-007 31.1828 2.06708e-007 -3.71181e-008 2.22213 0 -4.76837e-007 -38.5073 -1.49326e-005 -1.09822e-005 1.61867 -4.44097e-016 1.19209e-007 -179.96 -0.000122127 0.00135478 1.40702 0.688129 -0.883536 79.3748 -6.5441 31.2861 2.26828 1.19211e-007 2.38418e-007 26.1651 -1.94682e-006 3.66105e-006 2.0977 0 -1.19209e-007 -61.0262 4.01886e-006 -1.61707e-005 1.53753 0 2.98023e-007 179.961 -0.00346148 0.00168047 4.90559 -0.00427532 -0.00031242 -10.9345 4.11779 -0.104888 5.56288 -1.28305 -1.11022e-016 -40.6065 -0.451121 -1.94566 2.79232 -0.00218201 3.35276e-008 -10.7173 0.00221587 -0.99735 2.79273 9.53675e-007 -2.98023e-008 105.05 -1.74649 2.72057 4.19088 0.0665913 -2.22045e-016 174.839 -0.0522309 179.998 6.95116 3.8147e-006 0 -1.26503e-007 -1.62792e-008 2.86841e-008 
0.849866 14.5695 8.45148e-011 109.266 -90 -167.653 0 0 0 -89.9988 6.18131 -89.9989 -5.52397 -0.33228 2.91038e-011 -21.879 -2.75905 179.944 6.48885 -9.53675e-007 6.66134e-016 -17.4423 2.18516e-008 2.88004e-008 7.08759 -9.53675e-007 -0.00170946 -11.8601 1.36359e-007 2.85168e-008 4.02139 0.398892 1.53415e-017 -2.30441 -1.3781e-006 3.42462e-005 4.47644 -4.1544 -0.36784 -63.5335 -63.56 79.4802 8.51612 4.4409e-016 3.55271e-015 122.432 77.109 23.4528 10.1924 1.90735e-006 9.53673e-007 -118.811 -10.6441 13.4602 14.5949 -1.43855 0.58508 -20.6004 0.920734 2.94333 14.4623 5.32909e-015 0 -50.2167 7.45469 0.895186 4.85599 -3.27139 0.772031 119.404 -62.5081 -101.251 8.51612 8.8818e-016 1.90735e-006 -142.165 -70.4685 7.5748 10.1924 0 -9.53673e-007 126.015 12.5525 18.0227 14.4623 -5.32909e-015 0 34.5577 0.0914121 7.88458 14.5949 1.4385 0.585104 5.44759 -3.45563 13.1959 -4.00199 -0.558125 -3.45428 -102.909 2.91488 -174.48 3.92617 4.76838e-007 -4.44089e-016 -71.2302 -5.3519e-006 -1.63737e-005 6.1232 -1.77636e-015 -4.44089e-016 103.035 4.30888e-006 1.70269e-005 9.94775 -4.7684e-007 -4.44089e-016 -58.9678 18.4146 -3.4198 0.881236 -0.110956 0.0158345 110.21 -3.2866 176.752 2.32136 1.19211e-007 -8.19564e-008 46.4406 8.79045e-006 7.41953e-006 1.63292 4.44097e-016 4.47035e-008 -54.5976 -3.42436e-006 1.30897e-005 1.72129 4.8851e-015 1.49012e-008 1.02626e-006 1.00594e-005 2.68767e-007 0.994722 0.967274 -1.09431 71.6797 -11.0426 25.3265 2.202 -2.38422e-007 2.38419e-007 37.0436 6.39093e-006 8.23431e-006 1.84924 2.38423e-007 0 -30.305 -1.94826e-005 2.20772e-007 1.70976 -1.02143e-014 -2.38419e-007 7.25562e-008 1.01798e-005 1.04605e-006 1.37479 1.34027 -0.0712851 79.6945 0.482234 -2.64825 2.26123 -2.22048e-016 2.01166e-007 24.1835 1.40455e-005 4.42564e-006 2.22213 -9.77011e-015 7.45058e-008 -43.5071 3.71857e-006 4.40629e-006 1.61867 -4.76846e-007 3.7998e-007 2.55528e-007 1.69425e-006 -9.04837e-008 1.40695 0.687995 0.883748 81.4308 5.2948 -42.4962 2.26827 -3.33072e-015 3.55271e-015 29.1653 4.18789e-007 9.92983e-006 2.09769 -2.38423e-007 5.32907e-015 -55.023 -1.28321e-005 8.30991e-007 1.53752 -5.32919e-015 -1.77636e-015 -2.33975e-007 9.76681e-006 2.08836e-007 -4.00296 -0.558162 3.45326 -49.9106 -3.98541 178.85 3.92617 -1.77636e-015 -8.88178e-016 -31.5294 -5.08778e-006 8.54127e-006 6.1232 -1.77636e-015 -4.44089e-016 110.182 -1.05629e-005 2.22111e-005 9.94776 8.43773e-015 8.88178e-016 -50.6299 -16.2772 3.30075 0.88124 -0.110943 -0.0157733 110.805 3.24621 -176.86 2.32136 2.22269e-013 -0.000858545 54.452 0.0208108 0.0404113 1.63293 2.98025e-008 0.000795126 -61.5302 -2.47818e-006 -3.46742e-006 1.72129 2.6646e-015 1.33227e-015 179.967 -0.0210444 -0.00148826 0.994617 0.967139 1.09452 74.9865 9.48059 -25.9179 2.20201 8.88188e-016 2.38418e-007 40.0483 -0.00328857 0.00120845 1.84925 -1.19211e-007 -2.38418e-007 -72.6455 -1.79706e-006 -6.55113e-007 1.70976 -4.76848e-007 -2.38418e-007 179.961 0.00717483 0.000269363 1.37477 1.34028 0.0715771 72.3142 -0.819737 2.5656 2.26123 2.44252e-015 -1.19209e-007 31.1828 3.66716e-007 2.29395e-007 2.22213 -8.88191e-016 -4.76837e-007 -38.5073 -1.51182e-005 -1.07467e-005 1.61867 4.44097e-016 1.19209e-007 -179.96 -0.000122127 0.00135478 1.40702 0.688129 -0.883536 79.3749 -6.54409 31.2861 2.26828 1.19211e-007 2.38418e-007 26.1651 -1.95164e-006 3.66169e-006 2.0977 -5.55119e-015 -1.19209e-007 -61.0262 3.75899e-006 -1.6025e-005 1.53753 7.10558e-015 2.98023e-007 179.961 -0.00346148 0.00168047 4.90559 -0.00427532 -0.00031242 -11.0707 4.11967 -0.103481 5.56288 -1.28305 2.75335e-013 -40.6443 -0.451544 -1.94397 2.79232 -0.00218201 3.35276e-008 -10.7776 0.00325014 -0.997267 2.79273 9.53675e-007 -2.98023e-008 105.316 -1.60757 2.67019 4.19088 0.0665913 -2.16716e-013 174.917 -0.0501862 179.998 6.95116 3.8147e-006 4.44089e-016 -1.26503e-007 -1.62792e-008 2.86841e-008 
0.849866 14.5737 1.67298e-010 96.885 -90 -180 0 0 0 -89.9988 6.18131 -89.9989 -5.52397 -0.33228 2.91038e-011 -21.8269 -2.75789 179.943 6.48885 -9.53675e-007 5.55111e-016 -17.381 2.209e-008 2.87351e-008 7.08759 -9.53675e-007 -0.00170946 -11.613 1.36528e-007 2.76809e-008 4.02139 0.398892 -2.2443e-017 -2.26631 -0.000138247 0.00349326 4.47644 -4.1544 -0.36784 -63.5335 -63.56 79.4802 8.51612 1.77636e-015 0 122.432 77.109 23.4528 10.1924 1.90735e-006 9.53673e-007 -118.884 -10.6613 13.4468 14.5949 -1.43855 0.58508 -20.4439 0.959526 2.85384 14.4623 7.10546e-015 -8.88177e-016 -50.0467 7.48352 0.826569 4.85599 -3.27139 0.772031 119.404 -62.5081 -101.251 8.51612 2.22045e-015 1.90735e-006 -142.165 -70.4685 7.5748 10.1924 1.06582e-014 -9.53673e-007 126.015 12.5525 18.0227 14.4623 1.77636e-015 0 34.5045 -0.116574 7.88996 14.5949 1.4385 0.585104 5.33774 -3.48447 13.1497 -4.00214 -0.554098 -3.45478 -103.024 2.90934 -174.479 3.92617 4.76838e-007 0 -71.2785 -5.03677e-006 -1.64813e-005 6.1232 8.88181e-016 0 103.002 4.29872e-006 1.7029e-005 9.94775 -4.7684e-007 -8.88179e-016 -58.9324 18.4064 -3.42748 0.881236 -0.110956 0.0158345 110.21 -3.2866 176.752 2.32136 1.19211e-007 -8.19564e-008 46.4406 8.79065e-006 7.41901e-006 1.63292 -1.33229e-015 4.47035e-008 -54.5976 -3.42459e-006 1.30899e-005 1.72129 6.6615e-015 1.49012e-008 1.02626e-006 1.00594e-005 2.68767e-007 0.994722 0.967274 -1.09431 71.6797 -11.0426 25.3265 2.202 -2.38422e-007 2.38419e-007 37.0436 6.39035e-006 8.23431e-006 1.84924 2.38423e-007 1.33227e-015 -30.305 -1.44669e-005 -8.3598e-006 1.70976 -6.66147e-015 -2.38419e-007 7.25562e-008 1.01798e-005 1.04605e-006 1.37479 1.34027 -0.0712851 79.6945 0.482234 -2.64825 2.26123 -9.10396e-015 2.01166e-007 24.1835 1.40456e-005 4.42597e-006 2.22213 -2.22048e-015 7.45058e-008 -43.5071 3.71806e-006 4.40569e-006 1.61867 -4.76846e-007 3.7998e-007 2.55528e-007 1.69425e-006 -9.04837e-008 1.40695 0.687995 0.883748 81.4308 5.29478 -42.4962 2.26827 -3.99686e-015 -5.32907e-015 29.1653 3.65807e-007 9.84476e-006 2.09769 -2.38423e-007 -8.88178e-016 -55.023 -1.23017e-005 4.59049e-007 1.53752 -1.7764e-015 5.32907e-015 -2.33975e-007 9.76681e-006 2.08836e-007 -4.00398 -0.554148 3.45276 -50.0762 -3.98345 178.84 3.92617 -8.8818e-016 4.44089e-016 -31.6734 -5.10967e-006 8.52837e-006 6.1232 -3.55272e-015 4.44089e-016 110.194 -1.05585e-005 2.22132e-005 9.94776 -6.66137e-015 -8.88178e-016 -50.5934 -16.2752 3.31097 0.88124 -0.110943 -0.0157733 110.805 3.24622 -176.86 2.32136 4.40597e-013 -0.000858545 54.452 0.0208108 0.0404113 1.63293 2.98023e-008 0.000795126 -61.5302 -2.28226e-006 -3.57328e-006 1.72129 -4.44099e-016 -4.44089e-016 179.967 -0.0210444 -0.00148826 0.994617 0.967139 1.09452 74.9866 9.48057 -25.9179 2.20201 1.33228e-015 2.38418e-007 40.0483 -0.00328857 0.00120845 1.84925 -1.19211e-007 -2.38418e-007 -72.6455 -1.13097e-005 2.31544e-006 1.70976 -4.76848e-007 -2.38418e-007 179.961 0.00717483 0.000269363 1.37477 1.34028 0.0715771 72.3142 -0.819737 2.5656 2.26123 1.99842e-015 -1.19209e-007 31.1828 5.39116e-006 8.53296e-006 2.22213 -2.44252e-015 -4.76837e-007 -38.5073 -2.11684e-005 -3.14093e-006 1.61867 -4.44097e-016 1.19209e-007 -179.96 -0.000122127 0.00135478 1.40702 0.688129 -0.883536 79.3749 -6.54409 31.2861 2.26828 1.19211e-007 2.38418e-007 26.1651 -1.95316e-006 3.66139e-006 2.0977 -3.55276e-015 -1.19209e-007 -61.0262 3.91432e-006 -1.61132e-005 1.53753 7.10558e-015 2.98023e-007 179.961 -0.00346148 0.00168047 4.90559 -0.00427532 -0.00031242 -11.2042 4.12152 -0.102068 5.56288 -1.28305 2.68807e-012 -40.696 -0.450253 -1.94383 2.79232 -0.00218201 3.35276e-008 -10.8367 0.00425869 -0.997156 2.79273 9.53675e-007 -2.98023e-008 105.576 -1.47161 2.62018 4.19088 0.0665913 -4.24105e-013 174.994 -0.0481568 179.998 6.95116 3.8147e-006 0 -1.26503e-007 -1.62792e-008 2.86841e-008 
